<svg width="512" height="512" viewBox="0 0 512 512" fill="none" xmlns="http://www.w3.org/2000/svg">
<circle cx="255.5" cy="256.5" r="213.5" fill="white"/>
<circle cx="255.5" cy="256.5" r="213.5" stroke="#18181B" stroke-width="35"/>
<path d="M164.426 372C164.426 367.333 164.893 363.717 165.826 361.15C166.993 358.35 168.393 356.717 170.026 356.25L194.526 348.9L188.576 355.55V164.8L194.176 171.45L164.776 164.45C164.776 160.717 165.243 157.567 166.176 155C167.11 152.2 168.743 149.75 171.076 147.65H269.076C284.01 147.65 296.61 150.333 306.876 155.7C317.376 160.833 325.31 167.95 330.676 177.05C336.276 185.917 339.076 195.95 339.076 207.15C339.076 219.75 335.693 231.417 328.926 242.15C322.393 252.883 312.943 261.517 300.576 268.05C288.443 274.583 274.093 277.85 257.526 277.85C251.693 277.85 245.51 277.5 238.976 276.8C232.443 275.867 226.26 274.467 220.426 272.6H227.776V358L217.976 348.2L253.326 355.2C253.326 359.167 252.86 362.433 251.926 365C251.226 367.333 249.593 369.667 247.026 372H164.426ZM227.776 257.9L221.476 251.25C224.51 252.65 229.06 253.817 235.126 254.75C241.426 255.45 247.376 255.8 252.976 255.8C263.01 255.8 271.293 253.817 277.826 249.85C284.36 245.883 289.26 240.517 292.526 233.75C295.793 226.983 297.426 219.4 297.426 211C297.426 197 293.576 186.5 285.876 179.5C278.41 172.267 267.793 168.65 254.026 168.65C248.193 168.65 242.593 169.117 237.226 170.05C231.86 170.75 226.726 171.683 221.826 172.85L227.776 167.6V257.9ZM343.626 375.85C337.56 375.85 331.026 373.75 324.026 369.55C317.26 365.35 310.143 358.933 302.676 350.3C295.443 341.433 288.093 330.117 280.626 316.35C273.393 302.583 266.276 286.367 259.276 267.7L289.026 258.25C297.893 274.817 307.11 290.217 316.676 304.45C326.476 318.683 336.043 330.933 345.376 341.2C354.943 351.467 363.576 359.05 371.276 363.95C367.31 367.45 362.876 370.25 357.976 372.35C353.076 374.683 348.293 375.85 343.626 375.85Z" fill="#18181B"/>
</svg>
