<svg width="512" height="512" viewBox="0 0 512 512" fill="none" xmlns="http://www.w3.org/2000/svg">
  <g clip-path="url(#clip0_2_2)">
    <rect width="512" height="512" fill="#18181B"/>
    <path d="M119.484 346C119.484 336.9 121.351 331.65 125.084 330.25L145.034 322.55L141.184 328.5V207.4L145.384 212.65L125.084 208.1C123.451 207.633 122.051 206.117 120.884 203.55C119.951 200.75 119.484 197.133 119.484 192.7C130.217 191.067 138.267 189.9 143.634 189.2C149.001 188.5 153.551 188.15 157.284 188.15C164.284 188.15 169.301 189.9 172.334 193.4C175.601 196.667 177.234 202.383 177.234 210.55V223.5L174.434 220.35H178.984C184.817 209.617 192.167 200.983 201.034 194.45C209.901 187.683 218.534 184.3 226.934 184.3C236.267 184.3 243.034 186.4 247.234 190.6C251.667 194.8 253.884 200.4 253.884 207.4C253.884 212.767 252.134 217.433 248.634 221.4C245.134 225.367 240.701 227.35 235.334 227.35C232.301 221.283 229.034 217.2 225.534 215.1C222.034 213 218.184 211.95 213.984 211.95C207.917 211.95 201.501 214.517 194.734 219.65C187.967 224.55 182.017 230.617 176.884 237.85L179.684 230.15V328.85L174.434 321.5L205.934 328.85C205.934 332.817 205.467 336.083 204.534 338.65C203.834 340.983 202.201 343.433 199.634 346H119.484ZM326.29 350.2C307.857 350.2 292.807 346.583 281.14 339.35C269.707 332.117 263.99 323.133 263.99 312.4C263.99 306.567 265.74 302.133 269.24 299.1C272.74 296.067 277.057 294.55 282.19 294.55C288.724 294.55 294.09 296.533 298.29 300.5C298.29 312.633 300.74 321.733 305.64 327.8C310.774 333.633 318.59 336.55 329.09 336.55C338.19 336.55 345.307 334.333 350.44 329.9C355.807 325.467 358.49 319.283 358.49 311.35C358.49 305.05 356.624 299.917 352.89 295.95C349.39 291.983 344.724 288.717 338.89 286.15C333.29 283.583 327.224 281.133 320.69 278.8C312.757 275.767 304.94 272.383 297.24 268.65C289.774 264.917 283.474 260.017 278.34 253.95C273.44 247.65 270.99 239.6 270.99 229.8C270.99 216.033 276.474 205.067 287.44 196.9C298.64 188.5 313.807 184.3 332.94 184.3C343.907 184.3 353.59 185.7 361.99 188.5C370.39 191.067 377.04 194.683 381.94 199.35C386.84 204.017 389.29 209.5 389.29 215.8C389.29 220.933 387.54 225.017 384.04 228.05C380.54 230.85 376.224 232.25 371.09 232.25C365.957 232.25 361.407 230.617 357.44 227.35C357.44 217.783 354.99 210.55 350.09 205.65C345.19 200.517 338.307 197.95 329.44 197.95C321.974 197.95 315.907 199.817 311.24 203.55C306.807 207.05 304.59 211.833 304.59 217.9C304.59 223.5 306.224 228.05 309.49 231.55C312.99 235.05 317.424 238.083 322.79 240.65C328.39 242.983 334.224 245.317 340.29 247.65C348.69 250.683 357.09 254.183 365.49 258.15C373.89 262.117 380.774 267.367 386.14 273.9C391.74 280.2 394.54 288.717 394.54 299.45C394.54 309.717 391.74 318.7 386.14 326.4C380.54 333.867 372.49 339.7 361.99 343.9C351.724 348.1 339.824 350.2 326.29 350.2Z" fill="#FAFAFA"/>
  </g>
</svg>
