<svg width="512" height="512" viewBox="0 0 512 512" fill="none" xmlns="http://www.w3.org/2000/svg">
<circle cx="255.5" cy="256.5" r="213.5" fill="white"/>
<circle cx="255.5" cy="256.5" r="213.5" stroke="#2E3440" stroke-width="35"/>
<circle cx="255.5" cy="256.5" r="217.5" stroke="white" stroke-width="8"/>
<path d="M345.114 345.48V353.16C345.114 359.987 346.927 366.173 350.554 371.72V373H320.474C317.487 368.093 315.994 362.333 315.994 355.72V350.6C315.994 330.973 313.967 317.533 309.914 310.28C307.994 306.44 305.434 302.387 302.234 298.12C295.62 290.013 284.207 285.96 267.994 285.96H201.754V373H172.634V149.64H261.594C290.607 149.64 312.367 155.613 326.874 167.56C341.38 179.507 348.634 195.187 348.634 214.6C348.634 227.613 345.114 239.347 338.074 249.8C331.034 260.04 320.794 267.507 307.354 272.2V272.84C332.527 279.453 345.114 303.667 345.114 345.48ZM259.674 258.44C278.02 258.44 292.527 254.813 303.194 247.56C314.074 240.307 319.514 230.173 319.514 217.16C319.514 204.147 314.82 194.227 305.434 187.4C296.26 180.573 280.474 177.16 258.074 177.16H201.754V258.44H259.674Z" fill="#2E3440"/>
</svg>
